# xmcd
#
# Track frame offsets:
#	150
#	16330
#	32036
#	50292
#	73143
#	95129
#	110494
#	127773
#	149884
#	167374
#	187437
#	211016
#
# Disc length: 3100 seconds
#
# Revision: 0
# Processed by: cddbd v1.5.2PL0 Copyright (c) Steve Scherf et al.
# Submitted via: EasyCDDAExtractor 16.0.6.1
#
DISCID=af0c1a0c
DTITLE=Maurinho de Jesus - Amor Primaz
DYEAR=1900
DGENRE=
TTITLE0=Maurinho de Jesus - Preciso de nós
TTITLE1=Maurinho de Jesus - Amor primaz
TTITLE2=Maurinho de Jesus - Malandro jogo de cintura
TTITLE3=Maurinho de Jesus part. Tereza Gama - Aos pés de Santa Tereza
TTITLE4=Maurinho de Jesus - Seu Mucombo
TTITLE5=Maurinho de Jesus - Não foi desta vez
TTITLE6=Maurinho de Jesus - O canto da feira
TTITLE7=Maurinho de Jesus - Flor canção
TTITLE8=Maurinho de Jesus - Olha o meu batuque ai!
TTITLE9=Maurinho de Jesus - Da velha baiana
TTITLE10=Maurinho de Jesus - Do tempo, da elegância e da viola
TTITLE11=Maurinho de Jesus - Naquela manhã
EXTD=
EXTT0=
EXTT1=
EXTT2=
EXTT3=
EXTT4=
EXTT5=
EXTT6=
EXTT7=
EXTT8=
EXTT9=
EXTT10=
EXTT11=
PLAYORDER=
